<?xml version="1.0" encoding="UTF-8" standalone="no"?>
<!-- Created with Inkscape (http://www.inkscape.org/) -->

<svg
   xmlns:dc="http://purl.org/dc/elements/1.1/"
   xmlns:cc="http://creativecommons.org/ns#"
   xmlns:rdf="http://www.w3.org/1999/02/22-rdf-syntax-ns#"
   xmlns:svg="http://www.w3.org/2000/svg"
   xmlns="http://www.w3.org/2000/svg"
   xmlns:sodipodi="http://sodipodi.sourceforge.net/DTD/sodipodi-0.dtd"
   xmlns:inkscape="http://www.inkscape.org/namespaces/inkscape"
   width="210mm"
   height="297mm"
   viewBox="0 0 744.09448819 1052.3622047"
   id="svg11151"
   version="1.1"
   inkscape:version="0.91 r13725"
   sodipodi:docname="Aanzicht EF.svg">
  <defs
     id="defs11153" />
  <sodipodi:namedview
     id="base"
     pagecolor="#ffffff"
     bordercolor="#666666"
     borderopacity="1.0"
     inkscape:pageopacity="0.0"
     inkscape:pageshadow="2"
     inkscape:zoom="0.12374369"
     inkscape:cx="607.2169"
     inkscape:cy="547.32306"
     inkscape:document-units="px"
     inkscape:current-layer="layer1"
     showgrid="false"
     showguides="true"
     inkscape:guide-bbox="true"
     inkscape:snap-midpoints="true"
     inkscape:window-width="1615"
     inkscape:window-height="1026"
     inkscape:window-x="65"
     inkscape:window-y="24"
     inkscape:window-maximized="1"
     inkscape:object-nodes="true">
    <sodipodi:guide
       position="0,0"
       orientation="1,0"
       id="guide11872"
       inkscape:label=""
       inkscape:color="rgb(0,0,255)" />
    <sodipodi:guide
       position="0,0"
       orientation="0,1"
       id="guide11874" />
  </sodipodi:namedview>
  <metadata
     id="metadata11156">
    <rdf:RDF>
      <cc:Work
         rdf:about="">
        <dc:format>image/svg+xml</dc:format>
        <dc:type
           rdf:resource="http://purl.org/dc/dcmitype/StillImage" />
        <dc:title></dc:title>
      </cc:Work>
    </rdf:RDF>
  </metadata>
  <g
     inkscape:label="Layer 1"
     inkscape:groupmode="layer"
     id="layer1">
    <path
       style="color:#000000;font-style:normal;font-variant:normal;font-weight:normal;font-stretch:normal;font-size:medium;line-height:normal;font-family:sans-serif;text-indent:0;text-align:start;text-decoration:none;text-decoration-line:none;text-decoration-style:solid;text-decoration-color:#000000;letter-spacing:normal;word-spacing:normal;text-transform:none;direction:ltr;block-progression:tb;writing-mode:lr-tb;baseline-shift:baseline;text-anchor:start;white-space:normal;clip-rule:nonzero;display:inline;overflow:visible;visibility:visible;opacity:1;isolation:auto;mix-blend-mode:normal;color-interpolation:sRGB;color-interpolation-filters:linearRGB;solid-color:#000000;solid-opacity:1;fill:#ff0000;fill-opacity:1;fill-rule:nonzero;stroke:none;stroke-width:7.08661413;stroke-linecap:butt;stroke-linejoin:round;stroke-miterlimit:4;stroke-dasharray:none;stroke-dashoffset:0;stroke-opacity:1;color-rendering:auto;image-rendering:auto;shape-rendering:auto;text-rendering:auto;enable-background:accumulate"
       d="m -2554.2602,-2470.5128 a 3.5436614,3.5436614 0 0 0 -3.543,3.543 l 0,315.625 a 3.5436614,3.5436614 0 0 0 3.543,3.5449 l 86.8379,0 0,1410.29684 0,1789.86526 7.0859,0 0,-1644.41213 78.3516,0 a 2.6917772,2.6917772 0 0 0 2.6914,-2.69141 l 0,-139.21875 1504.30269,0 0,185.51953 a 3.5436614,3.5436614 0 0 0 3.5429,3.54493 l 107.8125,0 a 3.5436614,3.5436614 0 0 0 3.543,-3.54493 l 0,-185.51953 1496.10549,0 0,139.21875 a 2.6917772,2.6917772 0 0 0 2.6914,2.69141 l 77.5,0 0,1644.41213 7.0859,0 0,-1647.10354 0,-143.61328 0,-1409.44528 106.8242,0 a 3.5436614,3.5436614 0 0 0 3.543,-3.5449 l 0,-315.625 a 3.5436614,3.5436614 0 0 0 -3.543,-3.543 l -3484.37488,0 z m 3.5429,7.0879 3477.28908,0 0,308.5371 -103.2813,0 0,-32.1836 a 3.5436614,3.5436614 0 0 0 -3.543,-3.543 l -3283.62688,0 a 3.5436614,3.5436614 0 0 0 -3.5429,3.543 l 0,32.1836 -83.295,0 0,-308.5371 z m 90.3809,279.8965 3276.54098,0 0,28.6406 -3276.54098,0 0,-28.6406 z m 0,35.7285 3276.54098,0 0,1406.75387 -3198.18938,0 -78.3516,0 0,-1406.75387 z m 302.5801,16.8476 c -83.7254,0.099 -166.3014,19.4874 -241.3203,56.6641 a 3.5436614,3.5436614 0 0 0 -1.9707,3.1758 l 0,686.1659 a 3.5436614,3.5436614 0 0 0 3.5429,3.543 l 479.5059,0 a 3.5436614,3.5436614 0 0 0 3.543,-3.543 l 0,-685.7499 a 3.5436614,3.5436614 0 0 0 -1.9629,-3.1719 c -74.9848,-37.3219 -157.5652,-56.8556 -241.3242,-57.084 a 3.5436614,3.5436614 0 0 0 -0.014,0 z m 543.5058,0 c -83.7253,0.099 -166.3014,19.4874 -241.3203,56.6641 a 3.5436614,3.5436614 0 0 0 -1.9707,3.1758 l 0,686.1659 a 3.5436614,3.5436614 0 0 0 3.543,3.543 l 479.5059,0 a 3.5436614,3.5436614 0 0 0 3.5429,-3.543 l 0,-685.7499 a 3.5436614,3.5436614 0 0 0 -1.9629,-3.1719 c -74.9846,-37.3218 -157.5652,-56.8555 -241.3242,-57.084 a 3.5436614,3.5436614 0 0 0 -0.014,0 z m 538.75,0 c -83.7253,0.099 -166.3014,19.4874 -241.3203,56.6641 a 3.5436614,3.5436614 0 0 0 -1.9707,3.1758 l 0,686.1659 a 3.5436614,3.5436614 0 0 0 3.543,3.543 l 479.50579,0 a 3.5436614,3.5436614 0 0 0 3.543,-3.543 l 0,-685.7499 a 3.5436614,3.5436614 0 0 0 -1.9649,-3.1719 c -74.9846,-37.3218 -157.5633,-56.8555 -241.32219,-57.084 a 3.5436614,3.5436614 0 0 0 -0.014,0 z m 536.95899,0 c -83.7254,0.099 -166.3014,19.4874 -241.3203,56.6641 a 3.5436614,3.5436614 0 0 0 -1.9707,3.1758 l 0,686.1659 a 3.5436614,3.5436614 0 0 0 3.5429,3.543 l 479.5059,0 a 3.5436614,3.5436614 0 0 0 3.543,-3.543 l 0,-685.7499 a 3.5436614,3.5436614 0 0 0 -1.9649,-3.1719 c -74.9846,-37.3218 -157.5633,-56.8555 -241.3222,-57.084 a 3.5436614,3.5436614 0 0 0 -0.014,0 z m 539.16990037,0 c -83.72530037,0.099 -166.30340037,19.4874 -241.32230037,56.6641 a 3.5436614,3.5436614 0 0 0 -1.9707,3.1758 l 0,686.1659 a 3.5436614,3.5436614 0 0 0 3.545,3.543 l 479.50389,0 a 3.5436614,3.5436614 0 0 0 3.5449,-3.543 l 0,-685.7499 a 3.5436614,3.5436614 0 0 0 -1.9649,-3.1719 c -74.98458,-37.3218 -157.56329,-56.8555 -241.32218963,-57.084 a 3.5436614,3.5436614 0 0 0 -0.014,0 z m 543.58788963,0 c -83.7253,0.099 -166.3034,19.4874 -241.3223,56.6641 a 3.5436614,3.5436614 0 0 0 -1.9687,3.1758 l 0,686.1659 a 3.5436614,3.5436614 0 0 0 3.5429,3.543 l 479.5059,0 a 3.5436614,3.5436614 0 0 0 3.543,-3.543 l 0,-685.7499 a 3.5436614,3.5436614 0 0 0 -1.9649,-3.1719 c -74.9846,-37.3218 -157.5633,-56.8555 -241.3222,-57.084 a 3.5436614,3.5436614 0 0 0 -0.014,0 z m -2701.98238,7.086 0.014,0 c 81.9426,0.2255 162.719,19.2254 236.207,55.4336 l 0,679.9433 -472.4199,0 0,-680.3554 c 73.52,-36.0651 154.2909,-54.9231 236.1992,-55.0215 z m 543.5059,0 0.014,0 c 24.7622,0.068 49.4165,1.8625 73.7968,5.3164 l 0,258.287 -148.6972,0 0,-258.2519 c 24.7378,-3.5166 49.7582,-5.3213 74.8867,-5.3515 z m 538.75,0 0.014,0 c 81.94229,0.2255 162.71899,19.2255 236.20689,55.4336 l 0,679.9433 -472.41979,0 0,-680.3554 c 73.5199,-36.0651 154.2908,-54.9231 236.1992,-55.0215 z m 536.96279,0 0.014,0 c 81.9425,0.2255 162.7191,19.2254 236.207,55.4336 l 0,679.9433 -472.4199,0 0,-680.3554 c 73.52,-36.0651 154.2909,-54.9231 236.1992,-55.0215 z m 539.16990037,0 0.014,0 c 81.94239963,0.2255 162.71720963,19.2255 236.20508963,55.4336 l 0,679.9433 -472.41799,0 0,-680.3554 c 73.5196,-36.0646 154.2915,-54.9231 236.19920037,-55.0215 z m 543.58788963,0 0.014,0 c 81.943,0.2255 162.7187,19.225 236.207,55.4336 l 0,679.9433 -472.4199,0 0,-680.3554 c 73.5196,-36.0646 154.2915,-54.9231 236.1992,-55.0215 z m -2077.57218,6.3691 c 53.8113,8.3569 106.1962,24.8596 155.3223,49.0645 l 0,208.1698 -155.3223,0 0,-257.2343 z m -162.873,0.039 0,257.1952 -154.2246,0 0,-208.5819 c 48.8081,-23.9428 100.8136,-40.2922 154.2246,-48.6133 z m -154.2246,264.2812 154.2246,0 0,228.248 -154.2246,0 0,-228.248 z m 161.3125,0 148.6972,0 0,228.248 -148.6972,0 0,-228.248 z m 155.7851,0 155.3223,0 0,228.248 -155.3223,0 0,-228.248 z m -317.0976,235.334 154.2246,0 0,229.3535 -154.2246,0 0,-229.3535 z m 161.3125,0 148.6972,0 0,229.3535 -148.6972,0 0,-229.3535 z m 155.7851,0 155.3223,0 0,229.3535 -155.3223,0 0,-229.3535 z m -836.6484,328.33 a 3.5436614,3.5436614 0 0 0 -3.543,3.543 l 0,367.18755 a 3.5436614,3.5436614 0 0 0 3.543,3.54492 l 442.0097,0 a 3.5436614,3.5436614 0 0 0 3.543,-3.54492 l 0,-367.18755 a 3.5436614,3.5436614 0 0 0 -3.543,-3.543 l -442.0097,0 z m 523.7519,0 a 3.5436614,3.5436614 0 0 0 -3.5429,3.543 l 0,367.18755 a 3.5436614,3.5436614 0 0 0 3.5429,3.54492 l 464.0235,0 a 3.5436614,3.5436614 0 0 0 3.5429,-3.54492 l 0,-367.18755 a 3.5436614,3.5436614 0 0 0 -3.5429,-3.543 l -464.0235,0 z m 529.2969,0 a 3.5436614,3.5436614 0 0 0 -3.543,3.543 l 0,367.18755 a 3.5436614,3.5436614 0 0 0 3.543,3.54492 l 464.02339,0 a 3.5436614,3.5436614 0 0 0 3.543,-3.54492 l 0,-367.18755 a 3.5436614,3.5436614 0 0 0 -3.543,-3.543 l -464.02339,0 z m 552.42769,0 a 3.5436614,3.5436614 0 0 0 -3.5449,3.543 l 0,367.18755 a 3.5436614,3.5436614 0 0 0 3.5449,3.54492 l 464.0234,0 a 3.5436614,3.5436614 0 0 0 3.543,-3.54492 l 0,-367.18755 a 3.5436614,3.5436614 0 0 0 -3.543,-3.543 l -464.0234,0 z m 534.748,0 a 3.5436614,3.5436614 0 0 0 -3.5429,3.543 l 0,367.18755 a 3.5436614,3.5436614 0 0 0 3.5429,3.54492 l 464.02349,0 a 3.5436614,3.5436614 0 0 0 3.5429,-3.54492 l 0,-367.18755 a 3.5436614,3.5436614 0 0 0 -3.5429,-3.543 l -464.02349,0 z m 541.27929,0 a 3.442662,3.442662 0 0 0 -3.4433,3.4434 l 0,367.38871 a 3.442662,3.442662 0 0 0 3.4433,3.44336 l 437.709,0 a 3.442662,3.442662 0 0 0 3.4414,-3.44336 l 0,-367.38871 a 3.442662,3.442662 0 0 0 -3.4414,-3.4434 l -437.709,0 z m 3.4414,6.8848 430.8243,0 0,360.5059 -430.8243,0 0,-360.5059 z m -2681.40228,0.2031 434.9219,0 0,360.09968 -434.9219,0 0,-360.09968 z m 523.752,0 456.9375,0 0,360.09968 -456.9375,0 0,-360.09968 z m 529.2969,0 456.93739,0 0,360.09968 -456.93739,0 0,-360.09968 z m 552.42769,0 456.9355,0 0,360.09968 -456.9355,0 0,-360.09968 z m 534.748,0 456.93749,0 0,360.09968 -456.93749,0 0,-360.09968 z m -2234.09369,548.46491 75.6602,0 0,52.3418 -75.6602,0 0,-52.3418 z m 3201.73238,0 74.8086,0 0,52.3418 -74.8086,0 0,-52.3418 z m -1609.30079,0.002 100.7266,0 0,71.14648 -100.7266,0 0,-71.14648 z m -1592.43159,57.72265 75.6602,0 0,78.80274 -75.6602,0 0,-78.80274 z m 3201.73238,0 74.8086,0 0,78.80274 -74.8086,0 0,-78.80274 z m -2970.02148,2.20703 a 3.5436614,3.5436614 0 0 0 -1.7324,0.45313 c -90.95,51.0145 -147.3298,147.12535 -147.4746,251.40625 l 4.252,0.006 -4.252,0 0,1474.52533 a 3.5436614,3.5436614 0 0 0 3.543,3.543 l 1508.08589,0 a 3.5436614,3.5436614 0 0 0 3.5429,-3.543 l 0,-1474.52533 a 3.5436614,3.5436614 0 0 0 0,-0.006 c -0.1442,-104.28091 -56.5218,-200.39176 -147.47259,-251.40625 l -1.7343,3.09179 0,-3.54492 -1216.7579,0 z m 1605.99219,0 a 3.5436614,3.5436614 0 0 0 -1.7324,0.45313 c -90.9509,51.01449 -147.3304,147.12534 -147.4746,251.40625 l 4.2519,0.006 -4.2519,0 0,1474.52533 a 3.5436614,3.5436614 0 0 0 3.5429,3.543 l 1508.08599,0 a 3.5436614,3.5436614 0 0 0 3.5429,-3.543 l 0,-1474.52533 a 3.5436614,3.5436614 0 0 0 0,-0.006 c -0.1442,-104.28085 -56.5237,-200.3917 -147.4746,-251.40619 l -1.7324,3.08789 0,-3.54102 -1216.75779,0 z m -1605.00579,7.08594 1214.7871,0 c 88.27809,49.87633 142.96369,143.34064 143.10539,244.7793 l 0,1470.98237 -1500.99989,0 0,-1470.97847 0,-0.004 c 0.1421,-101.43867 54.83,-194.90297 143.1074,-244.7793 z m 1605.99209,0 1214.78519,0 c 88.2782,49.87633 142.9657,143.34064 143.1074,244.7793 l 0,1470.98237 -455.4102,0 0,-374.74607 343.0293,0 a 3.5436614,3.5436614 0 0 0 3.543,-3.5429 l 0,-930.58403 a 3.5436614,3.5436614 0 0 0 -1.5801,-2.94922 c -191.2927,-127.33707 -415.91,-195.39102 -645.70899,-195.63476 -222.1052,0.077 -439.5828,63.50642 -626.9043,182.84375 a 3.5436614,3.5436614 0 0 0 -1.6386,2.98828 l 0,943.33598 a 3.5436614,3.5436614 0 0 0 3.5429,3.5429 l 343.0274,0 0,374.74607 -462.8965,0 0,-1470.97847 0,-0.004 c 0.1417,-101.43866 54.8292,-194.90297 143.1074,-244.7793 z m -246.2578,11.21875 100.7266,0 0,103.74023 -100.7266,0 0,-103.74023 z m 848.0156,204.17187 0.01,0 c 227.77679,0.24276 450.41479,67.54305 640.20509,193.4375 l 0,925.10158 -343.0293,0 a 3.5436614,3.5436614 0 0 0 -3.543,3.543 l 0,378.28897 -568.52149,0 0,-378.28897 a 3.5436614,3.5436614 0 0 0 -3.543,-3.543 l -343.0273,0 0,-937.80861 c 185.8157,-117.94554 401.339,-180.653 621.4531,-180.73047 z m -29.791,40.70899 c -75.5338,2.28171 -150.6378,12.25176 -224.1504,29.75781 a 3.5436614,3.5436614 0 0 0 -2.7226,3.44727 l 0,434.105512 a 3.5436614,3.5436614 0 0 0 3.5429,3.5429 l 223.4375,0 a 3.5436614,3.5436614 0 0 0 3.543,-3.5429 l 0,-463.769582 a 3.5436614,3.5436614 0 0 0 -3.6504,-3.54101 z m 65.4473,0.14648 a 3.3965539,3.3965539 0 0 0 -3.4981,3.39453 l 0,463.769582 a 3.3965539,3.3965539 0 0 0 3.3965,3.3964 l 223.43749,0 a 3.3965539,3.3965539 0 0 0 3.3965,-3.3964 l 0,-434.105512 a 3.3965539,3.3965539 0 0 0 -2.6094,-3.30469 C 166.3872,-398.44631 91.29089,-408.41506 15.76709,-410.69648 Z m 3.2949,6.93946 c 72.9907,2.43645 145.55781,12.09118 216.64449,28.83789 l 0,427.990262 -216.64449,0 0,-456.828152 z m -72.1777,0.15234 0,155.32422 -105.8086,0 0,-146.66602 c 35.0897,-4.57067 70.3984,-7.47136 105.8086,-8.6582 z m -112.8946,9.60742 0,145.7168 -103.457,0 0,-126.52149 c 34.1819,-8.04883 68.7082,-14.4403 103.457,-19.19531 z m 498.91999,39.31446 a 3.5436614,3.5436614 0 0 0 -3.5997,3.54296 l 0,410.732472 a 3.5436614,3.5436614 0 0 0 3.543,3.5429 l 240.625,0 a 3.5436614,3.5436614 0 0 0 3.543,-3.5429 l 0,-298.646532 a 3.5436614,3.5436614 0 0 0 -1.6738,-3.00976 c -75.6728,-47.01029 -156.7165,-84.76125 -241.3926,-112.4433 a 3.5436614,3.5436614 0 0 0 -1.0449,-0.17578 z m -699.77349,0.002 a 3.5436614,3.5436614 0 0 0 -0.998,0.17383 c -84.6761,27.68205 -165.7199,65.43301 -241.3926,112.44336 a 3.5436614,3.5436614 0 0 0 -1.6738,3.00976 l 0,298.646532 a 3.5436614,3.5436614 0 0 0 3.5429,3.5429 l 240.625,0 a 3.5436614,3.5436614 0 0 0 3.543,-3.5429 l 0,-410.732472 a 3.5436614,3.5436614 0 0 0 -3.6465,-3.54101 z m -3.4394,8.5039 0,94.58204 -113.2266,0 0,-49.96485 c 36.8646,-16.9223 74.6625,-31.81996 113.2266,-44.61719 z m 706.69919,0 c 81.8305,27.15489 160.2162,63.75581 233.539,109.12696 l 0,293.099622 -233.539,0 0,-402.226582 z m -827.01169,47.89844 0,46.6836 -89.0196,0 c 28.9654,-16.91276 58.6688,-32.491 89.0196,-46.6836 z m -100.9864,53.76953 100.9864,0 0,151.234385 -113.2266,0 0,-143.775395 c 4.0639,-2.51468 8.1455,-4.99831 12.2402,-7.45899 z m 108.0723,0 113.2266,0 0,151.234385 -113.2266,0 0,-151.234385 z m 214.0625,3.31446 103.457,0 0,146.488285 -103.457,0 0,-146.488285 z m 110.543,0 105.8086,0 0,146.488285 -105.8086,0 0,-146.488285 z m -110.543,153.576175 103.457,0 0,140.542977 -103.457,0 0,-140.542977 z m 110.543,0 105.8086,0 0,140.542977 -105.8086,0 0,-140.542977 z m -444.918,1.43164 113.2266,0 0,142.236337 -113.2266,0 0,-142.236337 z m 120.3125,0 113.2266,0 0,142.236337 -113.2266,0 0,-142.236337 z m -936.65819,3.63476 c -114.7357,0.0515 -226.1433,38.570777 -316.4082,109.398477 a 3.5436614,3.5436614 0 0 0 -1.3554,2.7871 l 0,689.296798 a 3.5436614,3.5436614 0 0 0 3.5429,3.543 l 628.4512,0 a 3.5436614,3.5436614 0 0 0 3.543,-3.543 l 0,-688.742098 a 3.5436614,3.5436614 0 0 0 -1.3496,-2.7832 c -90.1931,-71.02889 -201.6106,-109.747277 -316.4141,-109.957067 a 3.5436614,3.5436614 0 0 0 -0.01,0 l 0,0 z m 0,7.08594 0,0 0.01,0 c 112.6505,0.20758 221.9724,38.037937 310.6816,107.417937 l 0,683.435598 -621.3633,0 0,-683.986398 c 88.778,-69.1803 198.0899,-106.814827 310.6719,-106.867137 z m 814.36319,222.140635 a 3.5436614,3.5436614 0 0 0 -3.5429,3.543 l 0,457.8125 a 3.5436614,3.5436614 0 0 0 3.5429,3.5429 l 242.1875,0 a 3.5436614,3.5436614 0 0 0 3.543,-3.5429 l 0,-457.8125 a 3.5436614,3.5436614 0 0 0 -3.543,-3.543 l -242.1875,0 z m 932.81249,0 a 3.5436614,3.5436614 0 0 0 -3.5429,3.543 l 0,457.8125 a 3.5436614,3.5436614 0 0 0 3.5429,3.5429 l 242.1875,0 a 3.5436614,3.5436614 0 0 0 3.543,-3.5429 l 0,-457.8125 a 3.5436614,3.5436614 0 0 0 -3.543,-3.543 l -242.1875,0 z m -929.26949,7.0859 235.1016,0 0,450.7266 -235.1016,0 0,-450.7266 z m 932.81249,0 235.1016,0 0,450.7266 -235.1016,0 0,-450.7266 z"
       id="path10951"
       inkscape:connector-curvature="0" />
  </g>
</svg>
